<?xml version="1.0" encoding="UTF-8" standalone="yes"?>
<svg version="1.2" width="500" height="500" baseProfile="tiny-ps" xmlns="http://www.w3.org/2000/svg">
  <title>spoo.me</title>
  <path d="M0 0 C2.0172891 -0.00464039 4.03457735 -0.00966664 6.05186462 -0.01504517 C11.48110005 -0.02804012 16.9103232 -0.03458673 22.33957171 -0.03905582 C25.7374969 -0.04200315 29.13541883 -0.0461106 32.53334236 -0.05056 C43.1837269 -0.06419106 53.83410389 -0.07388323 64.48449653 -0.07776189 C76.74751436 -0.08225409 89.01042136 -0.09987412 101.27340549 -0.12876248 C110.7820726 -0.15038126 120.29070849 -0.16046602 129.79939991 -0.16180301 C135.46743466 -0.16284942 141.1353646 -0.16872452 146.80337334 -0.18662262 C152.12640042 -0.20311016 157.44924384 -0.20525546 162.77228737 -0.19648361 C164.72133247 -0.19571404 166.67038752 -0.20004541 168.61940765 -0.20994186 C171.2868486 -0.22268967 173.95364136 -0.21676972 176.62107849 -0.20635986 C177.76768728 -0.21844447 177.76768728 -0.21844447 178.93745989 -0.23077321 C185.61581172 -0.17012358 191.52102281 1.4617546 197.29125977 4.84863281 C202.35566619 10.35989863 202.85906617 17.00016921 202.80444336 24.12817383 C202.8123288 25.41516174 202.8123288 25.41516174 202.82037354 26.72814941 C202.83348741 29.54063574 202.82486696 32.35254783 202.81469727 35.16503906 C202.81672029 37.13223885 202.81963363 39.0994379 202.82339478 41.06663513 C202.8278063 45.17950618 202.82142413 49.29218113 202.80737305 53.4050293 C202.79027065 58.66625585 202.80013655 63.92702358 202.81809044 69.18823338 C202.8289503 73.24695774 202.82547201 77.30557399 202.81770706 81.36430168 C202.81571173 83.30390414 202.8181408 85.24351654 202.82514572 87.18310738 C202.83279774 89.89683026 202.82110416 92.60981795 202.80444336 95.32348633 C202.81051605 96.11796677 202.81658875 96.9124472 202.82284546 97.73100281 C202.74936865 104.21856749 201.29802964 108.80892048 197.16625977 113.97363281 C192.26200668 117.87474322 186.88935521 118.41049785 180.76841736 118.41941833 C179.47168594 118.42624634 178.17495453 118.43307434 176.83892822 118.44010925 C175.41931124 118.43769038 173.99969454 118.43510615 172.58007812 118.43237305 C171.07155579 118.43676445 169.56303587 118.44206811 168.05451965 118.44821167 C164.81612098 118.45967853 161.57778745 118.46516863 158.33936882 118.46609306 C153.21654727 118.46803918 148.09385997 118.48612079 142.97108459 118.5068512 C130.25035285 118.55595994 117.52958488 118.5869341 104.80877686 118.6081543 C94.91484463 118.62468134 85.02102816 118.64749487 75.12717348 118.69117504 C70.0366156 118.71293582 64.94627772 118.72101081 59.85567653 118.71878231 C56.68794418 118.72045051 53.52035527 118.73450742 50.35267448 118.75199509 C48.88615971 118.75758782 47.41961511 118.75808604 45.9530983 118.75305748 C43.94776674 118.74690311 41.94240379 118.76091159 39.93711853 118.77586365 C38.25557883 118.77888064 38.25557883 118.77888064 36.54006863 118.78195858 C32.91136753 119.22241765 30.53045883 120.26845266 27.41625977 122.16113281 C22.60170863 128.40703699 21.7732778 133.48042094 22.41625977 141.16113281 C24.06278104 146.44733269 26.21397826 149.58857318 30.41625977 153.16113281 C33.73067997 154.31404829 33.73067997 154.31404829 37.46044922 154.80224609 C38.15442212 154.91580004 38.84839502 155.02935398 39.56339741 155.14634895 C41.8446168 155.51013868 44.12875492 155.83936544 46.41625977 156.16113281 C47.18927303 156.27292625 47.9622863 156.3847197 48.75872421 156.49990082 C53.81658414 157.22567455 58.88055972 157.89663861 63.94850731 158.54784775 C66.7916745 158.91393612 69.63386963 159.28689311 72.47590637 159.66165161 C80.54467364 160.72489285 88.61446049 161.78005353 96.68603516 162.82177734 C101.65951891 163.46415016 106.63145981 164.1175425 111.60265541 164.77737808 C113.4687464 165.0229669 115.3353603 165.2646232 117.20253563 165.50182724 C133.91953337 167.62740027 151.1812032 170.29053877 166.79125977 176.91113281 C167.60667236 177.24910889 168.42208496 177.58708496 169.26220703 177.93530273 C190.46954489 186.99746913 208.21403992 200.55676393 217.36157227 222.29003906 C226.33501008 246.7177309 225.58786806 272.29423166 225.54663086 297.92895508 C225.54092857 301.50785205 225.54433196 305.08667484 225.55005741 308.66556931 C225.60361304 347.72309461 225.60361304 347.72309461 222.72875977 361.28613281 C222.5543335 362.12031738 222.37990723 362.95450195 222.20019531 363.81396484 C216.60403798 389.06556723 200.98954805 409.87087314 179.27294922 423.79492188 C164.82388043 432.60975058 148.40845088 437.80573708 131.85375977 440.84863281 C130.88188721 441.02809448 130.88188721 441.02809448 129.89038086 441.21118164 C115.87034445 443.59746036 101.67977155 443.31558636 87.51098633 443.32226562 C85.20842918 443.32690141 82.90587278 443.33192708 80.60331726 443.33731079 C74.38260708 443.35035459 68.16190765 443.35686276 61.94118595 443.36132145 C58.05096609 443.36426229 54.1607491 443.36836873 50.2705307 443.37282562 C39.47844681 443.38491402 28.68636609 443.39530549 17.89427567 443.39870071 C16.86202364 443.39903006 16.86202364 443.39903006 15.80891804 443.39936607 C14.77438553 443.39969348 14.77438553 443.39969348 13.71895337 443.40002751 C12.32166878 443.40047096 10.9243842 443.40091753 9.52709961 443.40136719 C8.48747637 443.40169933 8.48747637 443.40169933 7.42685065 443.40203819 C-3.82126192 443.40599237 -15.06930996 443.42347455 -26.31739756 443.44672671 C-37.89257495 443.47046054 -49.4677107 443.48264541 -61.04291368 443.48406863 C-67.53147259 443.485116 -74.01994002 443.49101091 -80.50847626 443.50888824 C-86.60544813 443.52536358 -92.70225963 443.52752696 -98.79924583 443.51874924 C-101.0337104 443.51797886 -103.26818359 443.52232161 -105.50262642 443.53220749 C-108.55774795 443.54493029 -111.61230153 443.53904835 -114.66741943 443.52862549 C-115.98635401 443.5407101 -115.98635401 443.5407101 -117.33193374 443.55303884 C-124.35127279 443.49720741 -130.42767195 442.08221785 -136.45874023 438.41113281 C-141.50620437 433.06675902 -142.02748095 427.32788256 -141.98779297 420.32348633 C-141.99465622 419.4672467 -142.00151947 418.61100708 -142.0085907 417.7288208 C-142.02679999 414.91572192 -142.02302963 412.10318388 -142.01733398 409.29003906 C-142.02189858 407.32380493 -142.02720498 405.3575724 -142.03321838 403.39134216 C-142.04213795 399.27669785 -142.03973945 395.16224776 -142.02978516 391.04760742 C-142.0182966 385.78747702 -142.03851128 380.52801804 -142.06770229 375.26797581 C-142.08609112 371.20920081 -142.08576648 367.15058593 -142.08006477 363.09177971 C-142.07991189 361.15299475 -142.08592888 359.21419871 -142.09835625 357.27545357 C-142.11331537 354.5592711 -142.10255345 351.84431908 -142.08544922 349.12817383 C-142.09511719 348.33571762 -142.10478516 347.54326141 -142.11474609 346.72679138 C-142.02595876 339.95776897 -140.03524878 334.61264136 -135.20874023 329.78613281 C-129.98900696 326.55486935 -125.30293858 325.91116467 -119.22767639 325.90957642 C-118.14933719 325.90512121 -118.14933719 325.90512121 -117.04921335 325.900576 C-114.65186729 325.89296666 -112.25476846 325.8994173 -109.85742188 325.90576172 C-108.13392471 325.9030104 -106.41042881 325.89932965 -104.68693542 325.89479065 C-100.98088428 325.88668979 -97.27489343 325.88450738 -93.5688343 325.88673782 C-87.70651966 325.88957417 -81.8443252 325.87520725 -75.98204041 325.85775757 C-59.31389158 325.81076029 -42.64575122 325.78678791 -25.97753906 325.78027344 C-16.76767373 325.77652202 -7.5579447 325.75848763 1.6518622 325.72517908 C7.4772908 325.70497208 13.3023677 325.70259119 19.12781703 325.71345925 C22.75450123 325.71606836 26.38098106 325.70205288 30.00761223 325.68337822 C31.68656672 325.6780609 33.36555896 325.67954518 35.04449844 325.68841362 C37.34122357 325.6995649 39.63657078 325.68607043 41.93321228 325.66665649 C43.21685134 325.66556696 44.5004904 325.66447742 45.82302761 325.66335487 C50.33984716 325.03204403 52.6622869 323.7308155 56.41625977 321.16113281 C60.42511703 314.74696119 61.28501406 308.78597183 59.88500977 301.33300781 C58.94203158 295.95470419 58.94203158 295.95470419 55.68188477 291.96191406 C54.93422852 291.69765625 54.18657227 291.43339844 53.41625977 291.16113281 C52.58615891 290.84606277 51.75605804 290.53099274 50.90080261 290.20637512 C46.437607 288.86757084 42.00854889 288.25697534 37.39794922 287.63647461 C36.40346771 287.49791046 35.40898621 287.35934631 34.3843689 287.21658325 C32.2289302 286.91682273 30.07314089 286.61957486 27.9170475 286.32456017 C24.48695953 285.85451639 21.0580872 285.37638643 17.62944031 284.89595032 C7.88153839 283.53123633 -1.86803074 282.17875604 -11.61914062 280.8371582 C-17.5926882 280.01471206 -23.5645595 279.18086611 -29.53559303 278.34037209 C-31.79402081 278.02475811 -34.05304441 277.7133736 -36.31268883 277.40659142 C-67.11766705 273.22215994 -102.8010989 265.60195238 -123.58374023 240.16113281 C-126.10371617 236.59563495 -128.38197435 232.93007041 -130.58374023 229.16113281 C-130.96401367 228.53851563 -131.34428711 227.91589844 -131.73608398 227.27441406 C-134.24650025 222.78792716 -135.713541 217.93457589 -137.20874023 213.03613281 C-137.41515137 212.37403809 -137.6215625 211.71194336 -137.83422852 211.02978516 C-141.92170502 196.99423424 -141.90913996 182.79262883 -141.91967773 168.31347656 C-141.926124 166.20902928 -141.93285364 164.10458285 -141.93984985 162.00013733 C-141.9517616 157.60529508 -141.95553712 153.21053106 -141.9543457 148.81567383 C-141.95414313 143.24430765 -141.98140967 137.67345503 -142.01589012 132.10221004 C-142.03836953 127.75814104 -142.04217684 123.41419141 -142.04112625 119.07007027 C-142.04345209 117.01921385 -142.05210021 114.96835256 -142.06779099 112.91755486 C-142.2698973 83.77050004 -136.40057413 57.11181126 -115.81420898 35.39160156 C-84.33978641 3.91717899 -42.39857776 0.02303068 0 0 Z " fill="#692FF9" transform="translate(212.583740234375,26.8388671875)"/>
  <path d="M0 0 C-0.99 0.66 -1.98 1.32 -3 2 C-7.3370531 4.92751084 -9.75212394 7.91176117 -11 13 C-11.74195489 19.32186219 -11.1984551 24.37513069 -8 30 C-4.27897021 34.44644391 -1.64983045 35.7453367 4.04418945 36.64111328 C4.73816236 36.75466722 5.43213526 36.86822117 6.14713764 36.98521614 C8.42835704 37.34900587 10.71249515 37.67823262 13 38 C13.77301327 38.11179344 14.54602654 38.22358688 15.34246445 38.33876801 C20.40032437 39.06454174 25.46429996 39.73550579 30.53224754 40.38671494 C33.37541473 40.75280331 36.21760986 41.12576029 39.05964661 41.5005188 C47.12841388 42.56376003 55.19820072 43.61892072 63.26977539 44.66064453 C68.24325915 45.30301735 73.21520005 45.95640969 78.18639565 46.61624527 C80.05248664 46.86183409 81.91910054 47.10349039 83.78627586 47.34069443 C100.5032736 49.46626746 117.76494343 52.12940596 133.375 58.75 C134.1904126 59.08797607 135.0058252 59.42595215 135.84594727 59.77416992 C157.05328512 68.83633632 174.79778015 82.39563112 183.9453125 104.12890625 C192.91875032 128.55659808 192.1716083 154.13309885 192.13037109 179.76782227 C192.12466881 183.34671924 192.1280722 186.92554202 192.13379765 190.50443649 C192.18735327 229.5619618 192.18735327 229.5619618 189.3125 243.125 C189.13807373 243.95918457 188.96364746 244.79336914 188.78393555 245.65283203 C183.18777821 270.90443442 167.57328829 291.70974033 145.85668945 305.63378906 C117.76394474 322.77210684 86.04108025 325.26690635 54 325 C54 324.67 54 324.34 54 324 C54.69222656 323.96559814 55.38445312 323.93119629 56.09765625 323.89575195 C93.00594332 321.93545509 128.03354982 314.44853395 154.71875 287.2265625 C165.84682432 274.69030593 172.06249926 260.13212328 176 244 C176.23332031 243.08863281 176.46664062 242.17726563 176.70703125 241.23828125 C179.58494394 228.71211453 179.16151406 215.33659595 179.16796875 202.55859375 C179.1711982 201.01847811 179.17456339 199.47836275 179.17805481 197.93824768 C179.18398896 194.7305531 179.18590075 191.52288522 179.18530273 188.31518555 C179.18522168 185.07587069 179.1921406 181.83669787 179.20581055 178.59741211 C180.35041108 127.94317457 180.35041108 127.94317457 158 84 C157.27490234 83.13761719 157.27490234 83.13761719 156.53515625 82.2578125 C140.25552867 64.27980139 113.92341886 56.44782754 91 52 C89.83210938 51.76539063 88.66421875 51.53078125 87.4609375 51.2890625 C77.38667954 49.38090366 67.25037665 48.11280464 57.07510376 46.87579346 C44.47817799 45.34355707 31.91344048 43.63115014 19.35888672 41.78344727 C17.91766277 41.57164434 16.47641961 41.35997207 15.03515625 41.1484375 C14.34101624 41.04645554 13.64687622 40.94447357 12.93170166 40.83940125 C8.75117738 40.23242739 4.56875392 39.69952004 0.37109375 39.2265625 C-0.59610596 39.11127197 -1.56330566 38.99598145 -2.55981445 38.87719727 C-4.27087144 38.67703823 -5.98431278 38.49569107 -7.69995117 38.33959961 C-13.54214248 37.6312442 -17.05944605 35.35864625 -21 31 C-24.71380995 25.00998395 -24.68526043 18.92016516 -24 12 C-22.58005686 7.48959237 -20.00410027 4.13490152 -16.3828125 1.125 C-11.31847951 -1.26602935 -5.45792648 -0.40877674 0 0 Z " fill="#FC00FE" transform="translate(246,145)"/>
  <path d="M0 0 C0 0.33 0 0.66 0 1 C-0.90987671 1.08133179 -0.90987671 1.08133179 -1.83813477 1.16430664 C-34.62084173 4.26026331 -65.6289499 14.52361595 -87.7578125 40.0625 C-91.81898658 45.38306256 -95.01515597 51.03194033 -98 57 C-98.56847656 58.13566406 -99.13695313 59.27132812 -99.72265625 60.44140625 C-103.76269218 69.1666927 -105.6095618 77.54702088 -107 87 C-107.17287537 88.04109924 -107.34575073 89.08219849 -107.52386475 90.15484619 C-108.06661978 94.53800531 -108.15521574 98.80300701 -108.16113281 103.21386719 C-108.16609772 104.11095901 -108.17106262 105.00805084 -108.17617798 105.93232727 C-108.19072514 108.88718451 -108.19759249 111.84198789 -108.203125 114.796875 C-108.20595238 115.81483406 -108.20877975 116.83279312 -108.21169281 117.88159943 C-108.22666251 123.27865353 -108.23590345 128.6756811 -108.24023438 134.07275391 C-108.24568685 139.59621316 -108.26965268 145.1194219 -108.29820633 150.64280319 C-108.3170185 154.93274595 -108.32204828 159.2226309 -108.32357025 163.51261139 C-108.32656036 165.54557907 -108.33446232 167.57854666 -108.34775543 169.61147308 C-108.50873917 196.14492153 -105.23844073 222.90156274 -86 243 C-71.87937679 255.89011176 -54.27214239 263.91652404 -36 269 C-35.16831299 269.24169922 -34.33662598 269.48339844 -33.47973633 269.73242188 C-24.87031613 272.08051381 -16.177515 273.17360279 -7.34335327 274.27590942 C-2.43176839 274.89247845 2.47530986 275.54327081 7.3828125 276.19140625 C8.44307144 276.33120407 9.50333038 276.47100189 10.59571838 276.61503601 C22.95079802 278.2494647 35.29982582 279.92488764 47.63749409 281.68601608 C51.0543146 282.17354788 54.47173893 282.65451795 57.89181519 283.11871338 C61.74998801 283.6426642 65.60346268 284.19705522 69.45703125 284.75390625 C70.60730804 284.90593002 71.75758484 285.0579538 72.94271851 285.21458435 C80.32176042 286.31532369 86.82525065 288.03156332 91.65625 294.0703125 C94.38276991 300.70989338 95.45320937 307.35283847 93.26953125 314.3359375 C91.31778046 318.6218229 89.0235281 321.42081532 85 324 C81.71480525 325.09506492 79.26336585 325.09960608 75.8125 325.0625 C74.72582031 325.05347656 73.63914062 325.04445313 72.51953125 325.03515625 C71.68808594 325.02355469 70.85664063 325.01195312 70 325 C70.90878906 324.32710938 70.90878906 324.32710938 71.8359375 323.640625 C77.09051222 319.6570124 79.75026187 316.58952832 81 310 C81.58475206 303.91857855 80.48623231 297.59402269 78 292 C76.26755147 290.69012093 76.26755147 290.69012093 74 290 C73.16989914 289.68492996 72.33979828 289.36985992 71.48454285 289.04524231 C67.02134723 287.70643803 62.59228913 287.09584253 57.98168945 286.4753418 C56.98720795 286.33677765 55.99272644 286.1982135 54.96810913 286.05545044 C52.81267043 285.75568992 50.65688112 285.45844205 48.50078773 285.16342735 C45.07069976 284.69338358 41.64182743 284.21525362 38.21318054 283.7348175 C28.46527862 282.37010352 18.7157095 281.01762323 8.96459961 279.67602539 C2.99105203 278.85357925 -2.98081926 278.0197333 -8.9518528 277.17923927 C-11.21028057 276.8636253 -13.46930418 276.55224079 -15.72894859 276.2454586 C-46.53392681 272.06102713 -82.21735866 264.44081957 -103 239 C-105.51997593 235.43450214 -107.79823411 231.7689376 -110 228 C-110.38027344 227.37738281 -110.76054688 226.75476563 -111.15234375 226.11328125 C-113.66276002 221.62679435 -115.12980076 216.77344308 -116.625 211.875 C-116.83141113 211.21290527 -117.03782227 210.55081055 -117.25048828 209.86865234 C-121.33796478 195.83310143 -121.32539972 181.63149602 -121.3359375 167.15234375 C-121.34238377 165.04789647 -121.3491134 162.94345004 -121.35610962 160.83900452 C-121.36802137 156.44416227 -121.37179689 152.04939824 -121.37060547 147.65454102 C-121.3704029 142.08317483 -121.39766944 136.51232222 -121.43214989 130.94107723 C-121.4546293 126.59700823 -121.4584366 122.2530586 -121.45738602 117.90893745 C-121.45971186 115.85808104 -121.46835998 113.80721975 -121.48405075 111.75642204 C-121.68615707 82.60936722 -115.81683389 55.95067845 -95.23046875 34.23046875 C-70.01926707 9.01926707 -35.16327497 -1.34286906 0 0 Z " fill="#01FBFE" transform="translate(192,28)"/>
  <path d="M0 0 C8.96635028 -0.40963022 16.05467448 0.09730894 23.875 4.6875 C28.93940643 10.19876582 29.4428064 16.83903639 29.38818359 23.96704102 C29.39344055 24.82503296 29.39869751 25.6830249 29.40411377 26.5670166 C29.41722765 29.37950292 29.40860719 32.19141501 29.3984375 35.00390625 C29.40046053 36.97110604 29.40337387 38.93830509 29.40713501 40.90550232 C29.41154654 45.01837336 29.40516437 49.13104831 29.39111328 53.24389648 C29.37401088 58.50512304 29.38387678 63.76589077 29.40183067 69.02710056 C29.41269053 73.08582493 29.40921225 77.14444118 29.4014473 81.20316887 C29.39945197 83.14277133 29.40188103 85.08238373 29.40888596 87.02197456 C29.41653797 89.73569745 29.4048444 92.44868513 29.38818359 95.16235352 C29.39729263 96.35407417 29.39729263 96.35407417 29.40658569 97.56987 C29.33310889 104.05743468 27.88176987 108.64778766 23.75 113.8125 C17.27936167 118.95959867 9.86833997 118.23256177 2 118 C2.598125 117.70351562 3.19625 117.40703125 3.8125 117.1015625 C10.32687648 113.82110863 13.52361291 110.80186857 16 104 C16.51558272 101.0052459 16.53886602 98.09827909 16.50170898 95.06469727 C16.50711197 94.20991791 16.51251495 93.35513855 16.51808167 92.47445679 C16.53050672 89.67141223 16.51411828 86.86940752 16.49609375 84.06640625 C16.4962489 82.10399828 16.49774048 80.14159 16.50050354 78.17918396 C16.5018848 74.07463973 16.48937626 69.97044607 16.46655273 65.8659668 C16.43818794 60.62285198 16.44090411 55.38032002 16.45364285 50.13716221 C16.46062159 46.08692 16.45278538 42.03681083 16.44038582 37.98658562 C16.43589132 36.05422413 16.43551689 34.12184826 16.43945122 32.18948555 C16.44238457 29.48092865 16.42575517 26.77315481 16.40405273 24.06469727 C16.40855438 23.27740738 16.41305603 22.49011749 16.41769409 21.67897034 C16.34610065 16.26014362 15.68534447 10.79871164 13 6 C10.24473326 4.3127853 7.31705019 3.36728094 4.25 2.375 C3.05117188 1.98441406 3.05117188 1.98441406 1.828125 1.5859375 C1.22484375 1.39257812 0.6215625 1.19921875 0 1 C0 0.67 0 0.34 0 0 Z " fill="#FB01FE" transform="translate(386,27)"/>
  <path d="M0 0 C-0.58652344 0.28617187 -1.17304687 0.57234375 -1.77734375 0.8671875 C-3.77209219 1.88384312 -5.67724617 2.91877496 -7.5625 4.125 C-8.14128906 4.47820312 -8.72007813 4.83140625 -9.31640625 5.1953125 C-14.11257964 10.33645428 -14.43965745 17.2399738 -14.38818359 23.89111328 C-14.39606903 25.16588028 -14.39606903 25.16588028 -14.40411377 26.46640015 C-14.41722454 29.25122934 -14.40860914 32.03547838 -14.3984375 34.8203125 C-14.40046043 36.76748768 -14.40337369 38.71466212 -14.40713501 40.66183472 C-14.41154595 44.73182426 -14.40516558 48.80161561 -14.39111328 52.87158203 C-14.37399937 58.08134242 -14.3838844 63.29063985 -14.40183067 68.50038338 C-14.41268231 72.51703365 -14.40921621 76.53357452 -14.4014473 80.55022812 C-14.39945029 82.47111949 -14.40188696 84.39202089 -14.40888596 86.31290054 C-14.41652568 88.99809269 -14.40486206 91.68253902 -14.38818359 94.36767578 C-14.39425629 95.15640076 -14.40032898 95.94512573 -14.40658569 96.75775146 C-14.35092382 101.6079549 -13.45433114 104.70003539 -11 109 C-11 109.66 -11 110.32 -11 111 C-8.14589666 112.50560497 -5.31875358 113.63216796 -2.25 114.625 C-1.45078125 114.88539063 -0.6515625 115.14578125 0.171875 115.4140625 C0.77515625 115.60742188 1.3784375 115.80078125 2 116 C2 116.33 2 116.66 2 117 C-6.94977283 117.40887287 -14.12235117 116.96900364 -21.875 112.25 C-26.92246414 106.90562621 -27.44374072 101.16674975 -27.40405273 94.16235352 C-27.41091599 93.30611389 -27.41777924 92.44987427 -27.42485046 91.56768799 C-27.44305975 88.75458911 -27.4392894 85.94205107 -27.43359375 83.12890625 C-27.43815834 81.16267212 -27.44346474 79.19643958 -27.44947815 77.23020935 C-27.45839771 73.11556504 -27.45599922 69.00111494 -27.44604492 64.88647461 C-27.43455637 59.6263442 -27.45477104 54.36688523 -27.48396206 49.10684299 C-27.50235088 45.048068 -27.50202625 40.98945312 -27.49632454 36.9306469 C-27.49617166 34.99186193 -27.50218864 33.05306589 -27.51461601 31.11432076 C-27.52957513 28.39813829 -27.51881321 25.68318627 -27.50170898 22.96704102 C-27.51137695 22.17458481 -27.52104492 21.3821286 -27.53100586 20.56565857 C-27.44221853 13.79663615 -25.45150855 8.45150855 -20.625 3.625 C-13.92277194 -0.52399832 -7.669654 -0.22338798 0 0 Z " fill="#02FAFE" transform="translate(98,353)"/>
  <path d="M0 0 C17.07076213 1.92184456 34.03894351 4.27615962 51 7 C49 9 49 9 46.60473633 9.06665039 C36.91445884 8.18250938 27.31197869 6.85731068 17.6875 5.4375 C16.06060456 5.20077511 14.4336517 4.96444448 12.80664062 4.72851562 C8.87041878 4.15687471 4.9350064 3.57994613 1 3 C0.67 2.01 0.34 1.02 0 0 Z " fill="#0BE8FE" transform="translate(174,301)"/>
  <path d="M0 0 C2.97 0.33 5.94 0.66 9 1 C7 3 7 3 3.875 3.125 C2.451875 3.063125 2.451875 3.063125 1 3 C0.67 2.01 0.34 1.02 0 0 Z " fill="#0DE4FE" transform="translate(216,307)"/>
</svg>